<svg id="Layer_1" data-name="Layer 1" xmlns="http://www.w3.org/2000/svg" viewBox="0 0 150 150"><defs><style>.cls-1{fill:none;stroke:#000;stroke-linecap:round;stroke-linejoin:round;stroke-width:1.03px;}</style></defs><title>icons_</title><path class="cls-1" d="M106.21,35S59.36,13.29,36,57.43c-22.52,42.6,18.71,82.34,43.23,81C17.53,123.53,57.74,34.65,109.86,77"/><path d="M34.7,51.08s1.74-11.8,5.86-15.64C40.56,35.44,39.37,46,34.7,51.08Z"/><path d="M29.12,47a33.06,33.06,0,0,0-1.65,17.29S31.86,55.66,29.12,47Z"/><path d="M45,39.83s5.58-11,12.17-14.64C57.12,25.19,50.57,38.15,45,39.83Z"/><path d="M57.12,31.59S60.78,24.64,70.67,21C70.67,21,62.43,30.59,57.12,31.59Z"/><path d="M70.67,27.29s7.87-6.77,16-6.59C86.68,20.7,76.3,27.9,70.67,27.29Z"/><path d="M85.58,27.33A45,45,0,0,1,103.52,24S94.68,28.47,85.58,27.33Z"/><path d="M101.23,30.22A31,31,0,0,1,117.8,35S108.42,35.6,101.23,30.22Z"/><path d="M39.56,65.78s5.72-6.28,17-8.22C56.58,57.56,47.15,64.55,39.56,65.78Z"/><path d="M45,54.47s10.6-3.77,18.94-2.85A34.56,34.56,0,0,1,45,54.47Z"/><path d="M54.94,44.49S68,43.82,73.07,47C73.07,47,61.65,48.35,54.94,44.49Z"/><path d="M64.59,38.2s12.67,1.06,17.12,5.06C81.71,43.26,70.46,43.23,64.59,38.2Z"/><path d="M77.18,35.44s8.1.4,16,7.82A31.78,31.78,0,0,1,77.18,35.44Z"/><path d="M91,34.32S99.68,38.13,103.52,47C103.52,47,94.2,40.57,91,34.32Z"/><path d="M104.09,38.2a22.72,22.72,0,0,1,10,10.62S107.88,46.83,104.09,38.2Z"/><path d="M114.49,39.83s9.74,3.26,12,9C126.46,48.82,118.88,46.52,114.49,39.83Z"/><path d="M62.06,67.38s2.34-7.07,8.86-9.82C70.92,57.56,68.28,64.64,62.06,67.38Z"/><path d="M71.46,63.11s3.09-4.68,11.44-5.82C82.9,57.29,77.43,63.36,71.46,63.11Z"/><path d="M82.55,61.42c-.24-.22,5.84-4,11.64-2.79C94.19,58.63,88.92,62.56,82.55,61.42Z"/><path d="M92.05,62.16s6.52-2.28,11.79,0A14,14,0,0,1,92.05,62.16Z"/><path d="M100.9,65.78s7.51,0,11.69,4.34C112.59,70.12,105.73,70.8,100.9,65.78Z"/><path d="M108.76,72.16s5.72.3,10.29,6.21C119.05,78.37,113.21,78.18,108.76,72.16Z"/><path d="M70.23,71.93s5.18-1,10.53,4.72A14.77,14.77,0,0,1,70.23,71.93Z"/><path d="M78.6,70.15s6.29.31,9.41,5.12C88,75.27,83.07,75.69,78.6,70.15Z"/><path d="M86.94,69.22a10.51,10.51,0,0,1,6.33,7.44A12.28,12.28,0,0,1,86.94,69.22Z"/><path d="M94.19,70.67s3.84,1.25,5.49,8.8C99.68,79.47,95.53,77.18,94.19,70.67Z"/><path d="M101.6,73.93a11.21,11.21,0,0,0,3.68,9.4S105.75,77.09,101.6,73.93Z"/><path d="M108.54,78.63s-1.86,4.84,1.07,11.13C109.61,89.76,111.94,83.77,108.54,78.63Z"/><path d="M113,83.14a9.5,9.5,0,0,0,1.21,8.66S116.18,87.1,113,83.14Z"/><path d="M116.22,87.47a8.92,8.92,0,0,0,2.83,8.15A8.74,8.74,0,0,0,116.22,87.47Z"/><path d="M115.48,81.14s1.53,7.22,6.19,10.15A17.07,17.07,0,0,0,115.48,81.14Z"/></svg>