<svg id="Layer_1" data-name="Layer 1" xmlns="http://www.w3.org/2000/svg" viewBox="0 0 150 150"><defs><style>.cls-1{fill:none;stroke:#000;stroke-miterlimit:10;}</style></defs><title>icons_</title><path class="cls-1" d="M25.42,53.32S48,98.15,49.4,98.87s44.59,6.68,49.38,6.82,13.91-15,16.31-18.33a19.85,19.85,0,0,0,3.35-9.82c0-1.92-11.5-32.37-14.86-34.53s-62.33-13.18-63-12.94S29,38.94,25.42,53.32Z"/><path class="cls-1" d="M105.68,45.89s-6.9,14.38-5.22,18,5.76,14.62,14.63,23.49"/><path class="cls-1" d="M40.53,30.07s-4.18,3.88-.29,9.47S51.06,55.1,53.49,56.8s46.71,6.08,46.71,6.08"/><line class="cls-1" x1="49.3" y1="52.12" x2="35.32" y2="72.8"/><path class="cls-1" d="M40.36,65.35l7,20.39s13.19-.15,24,6.13L70.3,102.15"/><polyline class="cls-1" points="86.65 104.34 81.62 87.36 78.67 83.75 79.98 77.97 66.23 82.55 54.11 70.11 65.41 62.88 65.47 58.98"/><line class="cls-1" x1="79.67" y1="84.97" x2="100.2" y2="72.8"/></svg>