<svg id="Layer_1" data-name="Layer 1" xmlns="http://www.w3.org/2000/svg" viewBox="0 0 150 150"><defs><style>.cls-1,.cls-2,.cls-3{fill:none;stroke:#000;stroke-linecap:round;stroke-linejoin:round;}.cls-2{stroke-width:1.06px;}.cls-3{stroke-width:1.03px;}</style></defs><title>icons_</title><path class="cls-1" d="M47.39,85.88C34,89.49,3.87,77.64,10.82,51.8,6.34,46.17,13,36.9,20.27,42.35c22.59-5.84,41,13.23,41,23.94L57.79,78.78C55.29,83.37,47.39,85.88,47.39,85.88Z"/><path class="cls-2" d="M10.94,51.56a15.4,15.4,0,0,1,9.72-9.19"/><path class="cls-2" d="M77.23,62.84c17.58-25.37,51.59-13.39,51.59-13.39s2-5.77,4-4.3S130.67,54,130.67,54s9.33,17.07-6,28-27.28,7.86-27.28,7.86"/><path class="cls-3" d="M97.3,112.27C60.09,115,51.38,87.38,66.91,56.45,66.91,56.45,64.81,100.57,97.3,112.27Z"/><path class="cls-3" d="M66.91,56.45s39.73,19.49,30.39,55.82"/></svg>