<svg id="Layer_1" data-name="Layer 1" xmlns="http://www.w3.org/2000/svg" viewBox="0 0 150 150"><defs><style>.cls-1,.cls-2{fill:none;stroke:#000;}.cls-1{stroke-linecap:round;stroke-linejoin:round;}.cls-2{stroke-miterlimit:10;}</style></defs><title>icons_</title><path class="cls-1" d="M58.38,65.17a2.4,2.4,0,0,1-.19-.92,2.44,2.44,0,0,1,.54-1.57l12-15s2-12.16,2.79-14.53a2.47,2.47,0,0,1,2.16-1.69,26.42,26.42,0,0,1,7.08.2c5.5,1.12,6.73,2.42,9.21,2.4,2.32,0,12.53-5.24,15.89-5.68a8.5,8.5,0,0,1,1.77-.09c1.3.12,1.06.92,2.13,2.15,1.4,1.63,3.14,11.16,4.11,12.79a4.5,4.5,0,0,0,.64.71c3.2,3.13,16.49,13.53,16.15,15.32-.45,2.41-14.51,11.59-14.19,14s-1.08,17.45-1.41,18.53c-.12.43-.27.62-.55.67a14.73,14.73,0,0,1-2.59-.35c-2.38-.32-16.25-5.74-18.31-5.63s-17.44,8.88-18,8.67S75.93,89.41,75,85.72a4.06,4.06,0,0,0-.34-.81"/><line class="cls-1" x1="73.55" y1="33.18" x2="93.1" y2="61.33"/><circle class="cls-1" cx="94.17" cy="63.36" r="2.43"/><line class="cls-1" x1="109.66" y1="28.32" x2="95.45" y2="60.94"/><line class="cls-1" x1="93.38" y1="65.79" x2="77.66" y2="95.15"/><line class="cls-1" x1="96.06" y1="64.87" x2="116.54" y2="92.46"/><line class="cls-1" x1="91.74" y1="63.36" x2="58.19" y2="64.25"/><line class="cls-1" x1="96.59" y1="62.58" x2="116.54" y2="43.97"/><path class="cls-1" d="M96.59,63.36s31.5-2.24,36.1-4.07"/><path class="cls-1" d="M77.35,94.64s-1.18,11-10.31,11c-5.83,0-13.33-3.22-13.33-3.22S49.74,117,39.54,112c-9-6.33-5.11-18-5.11-18S20.18,102.82,14,93.3c-4.77-7.36,3.26-14.63,3.26-14.63a20.34,20.34,0,0,1-2.8-7.39c-.45-4.32.5-8.39,0-9.55a33,33,0,0,1,4.95-1.46c2.85-.66,13.36-2.23,20.09,3.54,0,0,.1-7.11,5.84-8.39,0,0,.69-3,2.38-3,5.88,0,8.73,7.76,9.11,8.88a12,12,0,0,1,0,4.46,13.57,13.57,0,0,1,9.2-.89c4.76,1.41,13.37,4.48,13.37,4.48s-.44,9.7-4.53,15.24"/><path class="cls-1" d="M17,78.66s10-10.89,25.81-4.44"/><path class="cls-1" d="M34.34,94.64a23.22,23.22,0,0,1,2.6-6.83c2-3.12,6.94-6.84,6.94-6.84s-16.24,5.94-26.61-2.3"/><path class="cls-1" d="M14.54,61.93c.13.13,13.72,3.6,19.06,10.25"/><path class="cls-1" d="M21.39,59.91c11.49,2.44,19.75,11,22.22,13.76"/><path class="cls-1" d="M45.56,55.43s1.31,2.22,1.95,7.93a48.24,48.24,0,0,1,0,9.38"/><path class="cls-1" d="M48.75,81.86c3.71,13-4.19,23.77-4.19,23.77S38.62,86.05,44.51,81"/><path class="cls-1" d="M55,78.48a.56.56,0,0,0,.29.18c.91.26,16.69,3.44,18.3,18.22,0,0-12.91-4.65-22.29-15.47"/><path class="cls-1" d="M50.42,73.07S56,67,68.49,68.38a38.83,38.83,0,0,1,7.68,2.23S66.85,79.83,55.36,77"/><ellipse class="cls-2" cx="48.3" cy="77.07" rx="4.31" ry="6.89" transform="translate(-32.54 118.75) rotate(-85.2)"/></svg>