<svg id="Layer_1" data-name="Layer 1" xmlns="http://www.w3.org/2000/svg" viewBox="0 0 150 150"><defs><style>.cls-1,.cls-2{fill:none;stroke:#000;}.cls-1{stroke-linecap:round;stroke-linejoin:round;stroke-width:1.03px;}.cls-2{stroke-miterlimit:10;}</style></defs><title>icons_</title><path class="cls-1" d="M52.65,93.1a36.78,36.78,0,0,1-25.83,4.31c-5.94-1.27-12.12-6-11.39-14.79.35-4.16,2.83-17.1,22-22.87a75.14,75.14,0,0,1-1-10.62c0-4.76,1.11-6.68,3.64-6.68s13.26.91,20.44,8.3S68.7,64.87,68.7,64.87s5.78-10.92,8-13.18a30.71,30.71,0,0,1,12.87-8.33c9-3.14,9.1-2.83,10.62.41s3.51,13.49,2.65,16.71a.24.24,0,0,1,0,.08"/><path class="cls-1" d="M73.5,66.69S80,54.85,93.19,57.08s27.11,15.48,29.34,23.27,1.3,12.76-2,16.76S113,102.2,108.42,102s-10.58-1.82-15.09-3.54c-5-1.92-6.58-3.29-6.58-3.29s-.87,17.91-13.94,17.25S53.17,98,52.67,93.28s-1.53-20.06,8-26.29C73.5,58.62,86.75,76.74,86.75,95.2"/><path class="cls-1" d="M37.48,59.75s12.11-3.37,18.3-.68c4.09,1.77,6.43,3.87,7.73,6.58"/><path class="cls-1" d="M37.48,43.79S46.84,53.56,48.65,58"/><path class="cls-1" d="M98.56,41.47s-7,11.76-9.63,15.33"/><path class="cls-2" d="M46.14,43.21s0,8.72-.43,10.37"/><path class="cls-2" d="M50.78,44.57S49.65,56,48.53,57.76"/><path class="cls-2" d="M36.5,50.58s5.13,0,6.57-.54"/><path class="cls-2" d="M37.21,54.58s8.12.81,9.56.22"/><path class="cls-2" d="M54.81,46.41S54.32,56.22,53.44,58"/><path class="cls-2" d="M59.21,49.48s-.14,7.3-1.16,10.71"/><path class="cls-2" d="M64.12,55s-.57,5.15-2.23,8.18"/><path class="cls-2" d="M37.21,57.46s4.09,1.37,5.86,1.13"/><path class="cls-2" d="M73.5,56.43a8.25,8.25,0,0,0,3.57,5.71"/><path class="cls-2" d="M100.65,46.41S98,47.91,93.33,50"/><path class="cls-2" d="M86.59,44.57s2.34,6.34,5.13,8"/><path class="cls-2" d="M102.44,52.22S94.79,55,90.29,54.93"/><path class="cls-2" d="M81.62,47.4s3.93,8.4,8,8.45"/><path class="cls-2" d="M76.72,51.69s2,6.62,4.77,7.16"/><path class="cls-2" d="M18.35,84.62c.49-.85,3.95-15.68,14.79-18.29"/><path class="cls-2" d="M112.07,70.36S122.56,82,120.18,93.55"/></svg>