<svg id="Layer_1" data-name="Layer 1" xmlns="http://www.w3.org/2000/svg" viewBox="0 0 150 150"><defs><style>.cls-1,.cls-2{fill:none;stroke:#000;stroke-miterlimit:10;}.cls-1{stroke-width:1.37px;}.cls-2{stroke-width:0.34px;}</style></defs><title>icons_</title><path class="cls-1" d="M49.31,99.59a6.66,6.66,0,0,0,2.54,4.1c2.39,2,3.65,2.88,4.75,3.24a22.05,22.05,0,0,0,2.66,1,9.3,9.3,0,0,0-2.52-4.46,22,22,0,0,0-4.88-3.25A6.76,6.76,0,0,0,49.31,99.59Z"/><path class="cls-2" d="M49.35,99.56a100.53,100.53,0,0,1,9.95,8.34"/><path class="cls-1" d="M54.81,111.12a6.69,6.69,0,0,0,4.81.5c3.06-.63,4.51-1.12,5.46-1.76a22.27,22.27,0,0,0,2.41-1.5,9.29,9.29,0,0,0-5.06-.74,21.62,21.62,0,0,0-5.56,1.87A6.82,6.82,0,0,0,54.81,111.12Z"/><path class="cls-2" d="M54.81,111.07a101.26,101.26,0,0,1,12.69-2.76"/><path class="cls-1" d="M64.86,99.83a6.71,6.71,0,0,0,2.55,4.11c2.38,2,3.64,2.88,4.74,3.24a24.06,24.06,0,0,0,2.66,1,9.22,9.22,0,0,0-2.52-4.46,21.26,21.26,0,0,0-4.88-3.25A7,7,0,0,0,64.86,99.83Z"/><path class="cls-2" d="M64.9,99.8a102.05,102.05,0,0,1,9.95,8.34"/><path class="cls-1" d="M55.88,103a6.66,6.66,0,0,0,4.24,2.31c3.07.6,4.59.71,5.72.48a25.87,25.87,0,0,0,2.8-.45,9.2,9.2,0,0,0-4.39-2.64,21.65,21.65,0,0,0-5.85-.42A7,7,0,0,0,55.88,103Z"/><path class="cls-2" d="M55.9,102.91a102.89,102.89,0,0,1,12.77,2.34"/><path class="cls-1" d="M50.33,96.87a6.67,6.67,0,0,0,4.38,2c3.1.4,4.63.41,5.74.11a24.51,24.51,0,0,0,2.77-.63A9.29,9.29,0,0,0,58.66,96a21.56,21.56,0,0,0-5.86,0A6.86,6.86,0,0,0,50.33,96.87Z"/><path class="cls-2" d="M50.34,96.82a101.87,101.87,0,0,1,12.9,1.51"/><path class="cls-1" d="M68.1,111.41a6.67,6.67,0,0,0,4.58,1.53c3.13,0,4.65-.12,5.71-.55a22.8,22.8,0,0,0,2.69-.94,9.3,9.3,0,0,0-4.79-1.82,21.5,21.5,0,0,0-5.83.63A6.84,6.84,0,0,0,68.1,111.41Z"/><path class="cls-2" d="M68.11,111.36a101.45,101.45,0,0,1,13,0"/><path class="cls-1" d="M71.1,105.33a6.67,6.67,0,0,0,4.83,0c3-1,4.37-1.57,5.25-2.31a23.44,23.44,0,0,0,2.26-1.74,9.29,9.29,0,0,0-5.12-.22A21.07,21.07,0,0,0,73,103.5,6.84,6.84,0,0,0,71.1,105.33Z"/><path class="cls-2" d="M71.1,105.28a100.46,100.46,0,0,1,12.33-4"/><path class="cls-1" d="M69.84,101.24a6.65,6.65,0,0,0,3.91-2.83c1.86-2.53,2.61-3.85,2.89-5a27.29,27.29,0,0,0,.8-2.72,9.15,9.15,0,0,0-4.27,2.83,21.71,21.71,0,0,0-2.89,5.1A7,7,0,0,0,69.84,101.24Z"/><path class="cls-2" d="M69.81,101.2A102.12,102.12,0,0,1,77.4,90.68"/><path class="cls-1" d="M34,106.63a6.66,6.66,0,0,0,4.8-.47c2.88-1.23,4.2-2,5-2.82a23.07,23.07,0,0,0,2.07-1.94,9.16,9.16,0,0,0-5.11.28,21.7,21.7,0,0,0-5.08,2.94A6.93,6.93,0,0,0,34,106.63Z"/><path class="cls-2" d="M34,106.58a100.87,100.87,0,0,1,11.88-5.24"/><path class="cls-1" d="M44.37,111.41a6.68,6.68,0,0,0,4.81-.47c2.87-1.23,4.2-2,5-2.82s2.1-1.76,2.07-2a9.34,9.34,0,0,0-5.12.29,21,21,0,0,0-5.07,2.94A6.82,6.82,0,0,0,44.37,111.41Z"/><path class="cls-2" d="M44.36,111.36a100.87,100.87,0,0,1,11.88-5.24"/><path class="cls-1" d="M58.62,84.1A6.67,6.67,0,0,0,54,85.54c-2.56,1.8-3.7,2.81-4.32,3.78a25.28,25.28,0,0,0-1.63,2.33A9.32,9.32,0,0,0,53,90.33a21.47,21.47,0,0,0,4.37-3.92A6.84,6.84,0,0,0,58.62,84.1Z"/><path class="cls-2" d="M58.64,84.15A100.59,100.59,0,0,1,48.08,91.7"/><path class="cls-1" d="M52.11,94.26a6.66,6.66,0,0,0-4-2.76c-3-.93-4.49-1.21-5.63-1.1a22.2,22.2,0,0,0-2.84.14,9.32,9.32,0,0,0,4.07,3.1,22,22,0,0,0,5.77,1.06A7.09,7.09,0,0,0,52.11,94.26Z"/><path class="cls-2" d="M52.09,94.3a101,101,0,0,1-12.44-3.72"/><path class="cls-1" d="M60.27,90.53a6.66,6.66,0,0,0-4.81-.44c-3.06.67-4.5,1.17-5.44,1.82a24.14,24.14,0,0,0-2.4,1.53,9.27,9.27,0,0,0,5.08.68,21.7,21.7,0,0,0,5.53-1.93A6.7,6.7,0,0,0,60.27,90.53Z"/><path class="cls-2" d="M60.27,90.59a101.16,101.16,0,0,1-12.65,2.9"/><path class="cls-1" d="M66.17,88.61a6.66,6.66,0,0,0-4.49,1.78c-2.42,2-3.48,3.08-4,4.09a23.1,23.1,0,0,0-1.45,2.44,9.2,9.2,0,0,0,4.84-1.68A21.74,21.74,0,0,0,65.11,91,7.09,7.09,0,0,0,66.17,88.61Z"/><path class="cls-2" d="M66.2,88.65a100.69,100.69,0,0,1-10,8.32"/><path class="cls-1" d="M47.55,85.87a6.63,6.63,0,0,0-4.81.41c-2.89,1.2-4.22,2-5,2.76A25.47,25.47,0,0,0,35.61,91a9.36,9.36,0,0,0,5.12-.22,22,22,0,0,0,5.11-2.88A7.11,7.11,0,0,0,47.55,85.87Z"/><path class="cls-2" d="M47.56,85.92A102.12,102.12,0,0,1,35.62,91"/><path class="cls-1" d="M44.51,93.36a6.75,6.75,0,0,0-4.44,1.9c-2.37,2-3.4,3.18-3.91,4.21A20.76,20.76,0,0,0,34.78,102a9.38,9.38,0,0,0,4.79-1.82,21.61,21.61,0,0,0,3.94-4.34A7.08,7.08,0,0,0,44.51,93.36Z"/><path class="cls-2" d="M44.53,93.41A101.09,101.09,0,0,1,34.8,102"/><path class="cls-1" d="M48,95a6.65,6.65,0,0,0-2.47,4.15c-.71,3-.88,4.57-.69,5.7a25.35,25.35,0,0,0,.35,2.82,9.42,9.42,0,0,0,2.8-4.29,22,22,0,0,0,.63-5.83A7,7,0,0,0,48,95Z"/><path class="cls-2" d="M48.06,95a100.78,100.78,0,0,1-2.81,12.67"/><path class="cls-1" d="M84.75,110.53a6.67,6.67,0,0,0,4.8.5c3.07-.64,4.52-1.12,5.47-1.76a25.42,25.42,0,0,0,2.41-1.5,9.38,9.38,0,0,0-5.07-.75,21.9,21.9,0,0,0-5.56,1.87A7.1,7.1,0,0,0,84.75,110.53Z"/><path class="cls-2" d="M84.75,110.48a101,101,0,0,1,12.68-2.76"/><path class="cls-1" d="M94.08,100.48a6.71,6.71,0,0,0,2.55,4.11c2.38,2,3.65,2.88,4.74,3.24a24.06,24.06,0,0,0,2.66,1,9.26,9.26,0,0,0-2.52-4.46,21.6,21.6,0,0,0-4.88-3.25A7,7,0,0,0,94.08,100.48Z"/><path class="cls-2" d="M94.12,100.45a102.05,102.05,0,0,1,9.95,8.34"/><path class="cls-1" d="M85.78,104A6.66,6.66,0,0,0,90,106.28c3.07.59,4.59.7,5.72.48a25.41,25.41,0,0,0,2.8-.45,9.2,9.2,0,0,0-4.39-2.64,21.65,21.65,0,0,0-5.85-.42A7,7,0,0,0,85.78,104Z"/><path class="cls-2" d="M85.8,103.92a100.94,100.94,0,0,1,12.77,2.34"/><path class="cls-1" d="M80.84,99.52a6.7,6.7,0,0,0,4.38,2c3.1.39,4.63.4,5.74.1a24,24,0,0,0,2.77-.63,9.33,9.33,0,0,0-4.55-2.35,22.05,22.05,0,0,0-5.87,0A6.93,6.93,0,0,0,80.84,99.52Z"/><path class="cls-2" d="M80.86,99.47A100.35,100.35,0,0,1,93.75,101"/><path class="cls-1" d="M98,110.81a6.72,6.72,0,0,0,4.59,1.53c3.13,0,4.65-.12,5.71-.54a23.64,23.64,0,0,0,2.68-.94,9.22,9.22,0,0,0-4.79-1.82,22,22,0,0,0-5.83.62A7.21,7.21,0,0,0,98,110.81Z"/><path class="cls-2" d="M98.05,110.76a102.14,102.14,0,0,1,13,0"/><path class="cls-1" d="M101,104.74a6.72,6.72,0,0,0,4.83,0c3-1,4.37-1.58,5.25-2.32a23.33,23.33,0,0,0,2.25-1.73,9.29,9.29,0,0,0-5.12-.22,21.64,21.64,0,0,0-5.34,2.42A7,7,0,0,0,101,104.74Z"/><path class="cls-2" d="M101,104.68a101.42,101.42,0,0,1,12.34-4"/><path class="cls-1" d="M100.3,101.26a6.73,6.73,0,0,0,3.91-2.84c1.85-2.52,2.61-3.85,2.88-5a23,23,0,0,0,.8-2.73,9.29,9.29,0,0,0-4.27,2.83,21.64,21.64,0,0,0-2.88,5.11A7,7,0,0,0,100.3,101.26Z"/><path class="cls-2" d="M100.27,101.22a100.25,100.25,0,0,1,7.59-10.53"/><path class="cls-1" d="M75.42,109.47a6.66,6.66,0,0,0,4.8-.47c2.88-1.24,4.2-2,5-2.82s2.1-1.76,2.07-2a9.36,9.36,0,0,0-5.11.28,21.67,21.67,0,0,0-5.08,2.95A6.93,6.93,0,0,0,75.42,109.47Z"/><path class="cls-2" d="M75.41,109.42a100.87,100.87,0,0,1,11.88-5.24"/><path class="cls-1" d="M88.56,83.51A6.67,6.67,0,0,0,84,85c-2.57,1.79-3.7,2.81-4.32,3.78A25.28,25.28,0,0,0,78,91.06a9.34,9.34,0,0,0,5-1.32,22.05,22.05,0,0,0,4.37-3.92A7.12,7.12,0,0,0,88.56,83.51Z"/><path class="cls-2" d="M88.58,83.56A103.36,103.36,0,0,1,78,91.11"/><path class="cls-1" d="M84,96.42a6.71,6.71,0,0,0-4-2.76c-3-.93-4.49-1.2-5.64-1.1a24.68,24.68,0,0,0-2.84.14,9.29,9.29,0,0,0,4.08,3.11,21.86,21.86,0,0,0,5.77,1A6.88,6.88,0,0,0,84,96.42Z"/><path class="cls-2" d="M83.93,96.47A101.24,101.24,0,0,1,71.5,92.74"/><path class="cls-1" d="M90.21,89.94a6.69,6.69,0,0,0-4.81-.45c-3.06.67-4.5,1.17-5.44,1.83a24.15,24.15,0,0,0-2.4,1.52,9.22,9.22,0,0,0,5.07.69,21.65,21.65,0,0,0,5.54-1.93A7.11,7.11,0,0,0,90.21,89.94Z"/><path class="cls-2" d="M90.21,90a101.16,101.16,0,0,1-12.65,2.9"/><path class="cls-1" d="M96.69,93.75a6.73,6.73,0,0,0-4.83-.14c-3,.87-4.41,1.46-5.31,2.18a25,25,0,0,0-2.3,1.67,9.26,9.26,0,0,0,5.11.36,21.8,21.8,0,0,0,5.41-2.28A7,7,0,0,0,96.69,93.75Z"/><path class="cls-2" d="M96.69,93.8a100.23,100.23,0,0,1-12.44,3.71"/><path class="cls-1" d="M73.63,98.42a6.71,6.71,0,0,0-3.7-3.12c-2.89-1.2-4.36-1.61-5.51-1.61a23.31,23.31,0,0,0-2.83-.12A9.11,9.11,0,0,0,65.36,97,21.53,21.53,0,0,0,71,98.61,6.91,6.91,0,0,0,73.63,98.42Z"/><path class="cls-2" d="M73.59,98.46a101.36,101.36,0,0,1-12-4.85"/><path class="cls-1" d="M60.24,84.24a6.69,6.69,0,0,0,2.54,4.11c2.38,2,3.65,2.88,4.74,3.23a25,25,0,0,0,2.66,1,9.32,9.32,0,0,0-2.51-4.47,22.18,22.18,0,0,0-4.88-3.25A7,7,0,0,0,60.24,84.24Z"/><path class="cls-2" d="M60.28,84.21a100.53,100.53,0,0,1,10,8.34"/><path class="cls-1" d="M43.86,83.75a6.67,6.67,0,0,0,4.38,2c3.11.4,4.63.41,5.74.11a24,24,0,0,0,2.77-.63,9.24,9.24,0,0,0-4.55-2.35,21.63,21.63,0,0,0-5.87,0A6.93,6.93,0,0,0,43.86,83.75Z"/><path class="cls-2" d="M43.88,83.7a101.59,101.59,0,0,1,12.89,1.51"/><path class="cls-1" d="M57.71,78.53a6.7,6.7,0,0,0-4-2.77c-3-.92-4.49-1.2-5.63-1.1a27.37,27.37,0,0,0-2.84.14,9.22,9.22,0,0,0,4.08,3.11,21.39,21.39,0,0,0,5.77,1A6.79,6.79,0,0,0,57.71,78.53Z"/><path class="cls-2" d="M57.69,78.57a102.94,102.94,0,0,1-12.44-3.72"/><path class="cls-1" d="M65.49,77.51a6.66,6.66,0,0,0-4.83-.14c-3,.87-4.41,1.46-5.31,2.17a24.34,24.34,0,0,0-2.3,1.68,9.36,9.36,0,0,0,5.11.36,21.87,21.87,0,0,0,5.4-2.29A6.89,6.89,0,0,0,65.49,77.51Z"/><path class="cls-2" d="M65.49,77.56a102.69,102.69,0,0,1-12.44,3.71"/><path class="cls-1" d="M97.19,84.79a6.65,6.65,0,0,0-4.37,2.06c-2.28,2.13-3.27,3.3-3.75,4.34a22.82,22.82,0,0,0-1.29,2.54,9.31,9.31,0,0,0,4.72-2,21.27,21.27,0,0,0,3.78-4.48A7,7,0,0,0,97.19,84.79Z"/><path class="cls-2" d="M97.22,84.83a100.61,100.61,0,0,1-9.41,8.94"/><path class="cls-1" d="M98,83.42a6.69,6.69,0,0,0-2.51,4.12c-.75,3-.93,4.56-.76,5.69a26.45,26.45,0,0,0,.31,2.83,9.22,9.22,0,0,0,2.85-4.26A21.81,21.81,0,0,0,98.62,86,7.07,7.07,0,0,0,98,83.42Z"/><path class="cls-2" d="M98.07,83.44a100.91,100.91,0,0,1-3,12.64"/><path class="cls-1" d="M89.64,66.48a6.67,6.67,0,0,0-.09,4.83c.91,3,1.51,4.39,2.24,5.28a25.67,25.67,0,0,0,1.7,2.28,9.26,9.26,0,0,0,.3-5.11,22,22,0,0,0-2.35-5.38A6.83,6.83,0,0,0,89.64,66.48Z"/><path class="cls-2" d="M89.69,66.48a100.46,100.46,0,0,1,3.85,12.39"/><path class="cls-1" d="M89.54,75.4a6.7,6.7,0,0,0-.08,4.83c.9,3,1.51,4.4,2.24,5.29a21.53,21.53,0,0,0,1.7,2.27,9.36,9.36,0,0,0,.3-5.11,22,22,0,0,0-2.35-5.38A7,7,0,0,0,89.54,75.4Z"/><path class="cls-2" d="M89.59,75.4a101.71,101.71,0,0,1,3.86,12.39"/><path class="cls-1" d="M111.51,92.23a6.69,6.69,0,0,0-.91-4.75c-1.49-2.75-2.38-4-3.27-4.72a24.93,24.93,0,0,0-2.13-1.88A9.28,9.28,0,0,0,106,86a21.8,21.8,0,0,0,3.4,4.78A6.9,6.9,0,0,0,111.51,92.23Z"/><path class="cls-2" d="M111.46,92.24a101.81,101.81,0,0,1-6.31-11.34"/><path class="cls-1" d="M99.2,86.2a6.72,6.72,0,0,0,3.19-3.63c1.26-2.86,1.7-4.32,1.73-5.47a21.83,21.83,0,0,0,.18-2.84,9.36,9.36,0,0,0-3.54,3.7,21.42,21.42,0,0,0-1.7,5.62A6.73,6.73,0,0,0,99.2,86.2Z"/><path class="cls-2" d="M99.16,86.17a101.69,101.69,0,0,1,5.1-11.94"/><path class="cls-1" d="M104.93,93.14a6.69,6.69,0,0,0,1-4.73c-.32-3.11-.65-4.6-1.2-5.61a24.19,24.19,0,0,0-1.24-2.56,9.3,9.3,0,0,0-1.26,5,21.63,21.63,0,0,0,1.3,5.72A6.8,6.8,0,0,0,104.93,93.14Z"/><path class="cls-2" d="M104.88,93.13a100.37,100.37,0,0,1-1.45-12.9"/><path class="cls-1" d="M100.41,99.15a6.65,6.65,0,0,0,.68-4.78c-.52-3.09-1-4.55-1.55-5.53a23.52,23.52,0,0,0-1.41-2.47,9.37,9.37,0,0,0-.93,5A21.71,21.71,0,0,0,98.86,97,7.08,7.08,0,0,0,100.41,99.15Z"/><path class="cls-2" d="M100.36,99.15a101.61,101.61,0,0,1-2.28-12.78"/><path class="cls-1" d="M107.94,79.43a6.66,6.66,0,0,0,.14-4.83c-.87-3-1.46-4.42-2.17-5.31a24.81,24.81,0,0,0-1.68-2.3,9.34,9.34,0,0,0-.36,5.11,21.87,21.87,0,0,0,2.29,5.4A7,7,0,0,0,107.94,79.43Z"/><path class="cls-2" d="M107.89,79.43A100.81,100.81,0,0,1,104.18,67"/><path class="cls-1" d="M101.25,78.31a6.66,6.66,0,0,0-1.38-4.63C98.1,71.1,97.1,70,96.14,69.32a25.71,25.71,0,0,0-2.31-1.65,9.21,9.21,0,0,0,1.26,5A21.36,21.36,0,0,0,99,77,6.94,6.94,0,0,0,101.25,78.31Z"/><path class="cls-2" d="M101.21,78.33a100.18,100.18,0,0,1-7.43-10.64"/><path class="cls-1" d="M115.2,81.44a6.67,6.67,0,0,0-2.52,4.12c-.74,3-.93,4.56-.76,5.7a23.17,23.17,0,0,0,.32,2.82,9.31,9.31,0,0,0,2.85-4.26,21.72,21.72,0,0,0,.7-5.82A7,7,0,0,0,115.2,81.44Z"/><path class="cls-2" d="M115.24,81.47a100.91,100.91,0,0,1-3,12.63"/><path class="cls-1" d="M119.23,98.85a6.66,6.66,0,0,0,3.2-3.62c1.25-2.87,1.7-4.33,1.72-5.48a24.66,24.66,0,0,0,.19-2.83,9.29,9.29,0,0,0-3.55,3.7,21.88,21.88,0,0,0-1.7,5.61A6.92,6.92,0,0,0,119.23,98.85Z"/><path class="cls-2" d="M119.19,98.82a100,100,0,0,1,5.11-11.93"/><path class="cls-1" d="M117.58,97.17a6.66,6.66,0,0,0,.69-4.78c-.52-3.09-1-4.55-1.56-5.53a26.35,26.35,0,0,0-1.4-2.47,9.27,9.27,0,0,0-.94,5A21.71,21.71,0,0,0,116,95.06,7,7,0,0,0,117.58,97.17Z"/><path class="cls-2" d="M117.53,97.17a101.61,101.61,0,0,1-2.28-12.78"/><path class="cls-1" d="M68.94,63.44a6.7,6.7,0,0,0-4.23,2.33c-2.15,2.27-3.06,3.5-3.48,4.57a27,27,0,0,0-1.13,2.6,9.14,9.14,0,0,0,4.59-2.28A21.93,21.93,0,0,0,68.19,66,6.9,6.9,0,0,0,68.94,63.44Z"/><path class="cls-2" d="M69,63.48A102.17,102.17,0,0,1,60.13,73"/><path class="cls-1" d="M60.29,65.72a6.7,6.7,0,0,0-4.23,2.33c-2.16,2.27-3.07,3.49-3.48,4.57a24.51,24.51,0,0,0-1.13,2.6A9.22,9.22,0,0,0,56,72.94a21.27,21.27,0,0,0,3.5-4.71A6.92,6.92,0,0,0,60.29,65.72Z"/><path class="cls-2" d="M60.31,65.76a101.55,101.55,0,0,1-8.83,9.51"/><path class="cls-1" d="M75.34,82.15a6.66,6.66,0,0,0,2.54,4.11c2.38,2,3.65,2.88,4.75,3.24a24.06,24.06,0,0,0,2.66,1A9.26,9.26,0,0,0,82.77,86a21.6,21.6,0,0,0-4.88-3.25A7,7,0,0,0,75.34,82.15Z"/><path class="cls-2" d="M75.38,82.12a102.05,102.05,0,0,1,10,8.34"/><path class="cls-1" d="M77.42,81.06a6.68,6.68,0,0,0,4.38,2c3.11.39,4.64.41,5.74.11a25.77,25.77,0,0,0,2.77-.63,9.19,9.19,0,0,0-4.55-2.35,21.56,21.56,0,0,0-5.86,0A7.17,7.17,0,0,0,77.42,81.06Z"/><path class="cls-2" d="M77.44,81a101.59,101.59,0,0,1,12.89,1.51"/><path class="cls-1" d="M84.65,66.67A6.67,6.67,0,0,0,80,68.11c-2.56,1.8-3.7,2.81-4.32,3.78a25.28,25.28,0,0,0-1.63,2.33,9.32,9.32,0,0,0,5-1.32A21.47,21.47,0,0,0,83.41,69,6.84,6.84,0,0,0,84.65,66.67Z"/><path class="cls-2" d="M84.67,66.72a102.16,102.16,0,0,1-10.56,7.55"/><path class="cls-1" d="M80.05,79.59a6.7,6.7,0,0,0-4-2.77c-3-.92-4.49-1.2-5.64-1.1a26.93,26.93,0,0,0-2.83.14A9.24,9.24,0,0,0,71.69,79a21.86,21.86,0,0,0,5.77,1A6.88,6.88,0,0,0,80.05,79.59Z"/><path class="cls-2" d="M80,79.63a102.44,102.44,0,0,1-12.43-3.72"/><path class="cls-1" d="M89.39,74.94a6.71,6.71,0,0,0-4.81-.45c-3.06.67-4.5,1.17-5.45,1.83a22.88,22.88,0,0,0-2.4,1.52,9.36,9.36,0,0,0,5.08.69,22,22,0,0,0,5.54-1.94A7.08,7.08,0,0,0,89.39,74.94Z"/><path class="cls-2" d="M89.38,75a100.7,100.7,0,0,1-12.65,2.9"/><path class="cls-1" d="M72.33,71.66a6.69,6.69,0,0,0-4.81.41c-2.89,1.2-4.22,2-5,2.76s-2.12,1.74-2.09,1.93a9.3,9.3,0,0,0,5.12-.23,21.38,21.38,0,0,0,5.1-2.88A6.7,6.7,0,0,0,72.33,71.66Z"/><path class="cls-2" d="M72.34,71.71a100.76,100.76,0,0,1-11.94,5.1"/><path class="cls-1" d="M72,78.43a6.68,6.68,0,0,0-4.44,1.9c-2.36,2-3.39,3.18-3.91,4.21A22.41,22.41,0,0,0,62.25,87,9.38,9.38,0,0,0,67,85.2,21.61,21.61,0,0,0,71,80.86,6.88,6.88,0,0,0,72,78.43Z"/><path class="cls-2" d="M72,78.48a100.63,100.63,0,0,1-9.74,8.58"/><path class="cls-1" d="M74.75,81.69a6.7,6.7,0,0,0-2.47,4.15c-.7,3-.87,4.57-.68,5.7a23.5,23.5,0,0,0,.34,2.82,9.14,9.14,0,0,0,2.8-4.29,21.22,21.22,0,0,0,.63-5.83A6.88,6.88,0,0,0,74.75,81.69Z"/><path class="cls-2" d="M74.8,81.71A100.78,100.78,0,0,1,72,94.38"/></svg>