<svg id="Layer_1" data-name="Layer 1" xmlns="http://www.w3.org/2000/svg" viewBox="0 0 150 150"><defs><style>.cls-1,.cls-2,.cls-3,.cls-4{fill:none;stroke:#000;stroke-linecap:round;stroke-linejoin:round;}.cls-1{stroke-width:1.03px;}.cls-2{stroke-width:0.99px;}.cls-3{stroke-width:0.94px;}.cls-4{stroke-width:1.06px;}</style></defs><title>icons_</title><path class="cls-1" d="M83.83,54c-7.75,2.51-8.25,13-8.3,15.18-.12,4.15.84,11.65,3.66,17.08,4.38,8.47,12.41,17.38,23.42,18.89,6.45.88,11.48,0,15.27-1.68"/><path class="cls-2" d="M123.77,89.48c0,4.86-1.4,9.63-4.85,13-8.81,8.72-23.18,11-35.56,4.66C68.17,99.43,61.72,81.66,69,67.5c8.49-17.55,24.65-17.19,38.31-7C118.36,68.84,123.87,79.86,123.77,89.48Z"/><ellipse class="cls-1" cx="47.51" cy="43.18" rx="2.59" ry="1.43"/><ellipse class="cls-1" cx="51.01" cy="49.24" rx="2.59" ry="1.43"/><ellipse class="cls-1" cx="56.19" cy="43.18" rx="2.59" ry="1.43"/><path class="cls-1" d="M26.1,82.28s13.27,15.48,35.78,9.23"/><ellipse class="cls-3" cx="99.02" cy="79.02" rx="11.24" ry="16.54" transform="translate(-27.46 71.93) rotate(-35.38)"/><path class="cls-4" d="M69.08,92.86a39.35,39.35,0,0,1-18,4.27c-19.89,0-36-14.32-36-32s16.13-32,36-32c15.53,0,28.64,8.42,33.69,20.66"/></svg>