<svg id="Layer_1" data-name="Layer 1" xmlns="http://www.w3.org/2000/svg" viewBox="0 0 150 150"><defs><style>.cls-1,.cls-2,.cls-3,.cls-4{fill:none;stroke:#000;}.cls-1,.cls-3,.cls-4{stroke-linecap:round;stroke-linejoin:round;}.cls-1{stroke-width:1.06px;}.cls-2{stroke-miterlimit:10;}.cls-3{stroke-width:1.08px;}.cls-4{stroke-width:0.98px;}</style></defs><title>icons_</title><path class="cls-1" d="M83.76,89.8c-.94-3.69-3.71-7.32-8.76-9.73,0,0-2.43-.11-5.58,0"/><path class="cls-2" d="M69.42,80.07c3.15-.11,5.58,0,5.58,0,3.72-6.16-3.47-12.82-8.5-9.3-4.64-9.67-17.45-7.41-21.21,0-6.17,1-8.57,4.32-6.9,10.06,0,0-6.31,4.73-5.22,9.14a8.29,8.29,0,0,0,6.51,6s-2.75,13.54,4.16,17.17,16.58,2.71,20.7-1.17c0,0,6.57,1.9,10.08-1.74s2-7.25,2-7.25A10.76,10.76,0,0,0,83.76,89.8"/><path class="cls-2" d="M45.3,70.78s8.77,6.52,11.36,12"/><path class="cls-2" d="M38.39,80.83s9.85-3.71,18.13,1.9"/><path class="cls-2" d="M56.24,82.55s-12.51,8-16.41,13.65"/><path class="cls-2" d="M57,82.55s7.36-10.88,9.51-11.77"/><path class="cls-2" d="M64.54,112s2.39-22.89-8.3-29.47c0,0,18.23,13.63,20.41,20.57"/><path class="cls-2" d="M56.66,82.81c2.36-2,8.28-2.58,12.76-2.74,3.15-.11,5.58,0,5.58,0"/><path class="cls-3" d="M92.14,91.28c.45,0,.9,0,1.35,0,16.76,0,30.35-12.89,30.35-28.79a28.5,28.5,0,0,0-15.51-25.1c-.61-.33-1.12-.59-1.44-.75l-.17-.08-.2-.09a1.69,1.69,0,0,0-.27-.11"/><path class="cls-3" d="M63.35,59.09a24.4,24.4,0,0,1,4.73-12"/><path class="cls-1" d="M80.51,29.49S68.9,29.12,65.27,41c-1.44,4.72,4.55,7.61,6.47,7.07A9.9,9.9,0,0,0,75,46.5s3,3.1,6.8,2.78a41,41,0,0,0,8.66-2.14s.43,7.06,6.2,8.35,7.81-1,9-1.29a22.29,22.29,0,0,0,4.92-1.92c1.39-.86,3.91-4.44,4.31-8.05s-7.91-7.52-8.36-7.71,1.91-6.38-5.47-10.45c-2.66-1.46-8.56.54-8.56.54s-.21-4-2.56-3.75S82.12,26.29,81.37,27A4.64,4.64,0,0,0,80.51,29.49Z"/><path class="cls-1" d="M80.51,29.49s3.81,4.18,3.62,7.17c0,0,2.37.75,6.33,1.6s5.56.43,5.78,1.61c0,0-2.89,3.64-5.56,7.59"/><path class="cls-1" d="M96.24,39.87s7.82-4.64,10.28-3.35"/><path class="cls-1" d="M92.49,26.61a10.32,10.32,0,0,0,.75,7.06c1.82,3.2.34,5.12.34,5.12"/><path class="cls-1" d="M92.2,29.93s6.28,0,7.25,1.28S97.76,37,96,39.81"/><ellipse class="cls-4" cx="56.65" cy="91.6" rx="33.2" ry="35.56" transform="translate(-41.81 135.27) rotate(-82.19)"/></svg>