<svg id="Layer_1" data-name="Layer 1" xmlns="http://www.w3.org/2000/svg" viewBox="0 0 150 150"><defs><style>.cls-1{fill:none;stroke:#000;stroke-linecap:round;stroke-linejoin:round;}</style></defs><title>icons_</title><path class="cls-1" d="M59.06,59.07a40.11,40.11,0,0,1-6.13-6.45,43.4,43.4,0,0,1-3.06-5.44v0a11.15,11.15,0,0,1-1.24-5.34,22.77,22.77,0,0,0,0-5.44,32.29,32.29,0,0,1,9.72,9l0,0A37.48,37.48,0,0,1,63.7,56"/><path class="cls-1" d="M68.52,54.11c-1.23-2.42-2.15-8.25-5-13.69-.15-.28-.3-.55-.46-.82a19.11,19.11,0,0,0-8.69-7.66c-.64,4.19,1,8.73,3.92,13.48l0,0"/><path class="cls-1" d="M72.57,53.34c-2.15-5.7-2.24-12.51-2.83-16.58v0c0-.22-.07-.42-.1-.62-.73-4.24-6.3-8.28-6.3-8.28-2,5-.26,11.77-.26,11.77"/><path class="cls-1" d="M75.32,53.21c-2-6.93.1-14.27.22-15.39,0-.19,0-.46,0-.78a29.08,29.08,0,0,0-.63-6.1,29.5,29.5,0,0,0-3-5.17c-2.42,3.25-2.24,10.4-2.22,11v0"/><path class="cls-1" d="M80.55,53.79a59.4,59.4,0,0,0,2.88-13,32.52,32.52,0,0,0-1.92-12.2c-.07.93-2.39,3.12-3.32,3.91S75.57,37,75.57,37"/><path class="cls-1" d="M85.23,55.31c.64-2.2,2.71-6,4.7-11.9a16.41,16.41,0,0,0,.7-3.12,22.24,22.24,0,0,0-1.7-11.14c-3.58,2.52-5.5,11.67-5.5,11.67"/><path class="cls-1" d="M90.63,40.29a19.59,19.59,0,0,1,8.25-8.95,13.34,13.34,0,0,0-.07,4.38c.4,1.92.13,5.57-1.32,7.49S90.09,53.05,89,57.33"/><path class="cls-1" d="M91.07,58.89c1.73-5.07,10.08-11.6,10.33-12s2.72-3,3.71-5.7a24.94,24.94,0,0,0,1.26-5.57C103,36.31,99,41,99,41"/><path class="cls-1" d="M94.75,62.6a39.35,39.35,0,0,0,11.82-9.15h0c4.56-5.31,5.55-9.83,5.55-9.83-.2.59-3.45.79-5.64,1s-5.1,2.32-5.1,2.32"/><path class="cls-1" d="M97.44,66.7A15.66,15.66,0,0,1,99,65.78c3.92-2.09,9-4.35,13.16-7.65s5-9.09,5-9.09c-2.51,0-10.11,4.14-10.59,4.4h0"/><path class="cls-1" d="M99.1,70.67c6.81-3.71,16.47-5.54,17.07-5.85h0A12.73,12.73,0,0,0,120,61.43C121,59.87,123.56,57,123.56,57s-1.57-.09-4.26,0a34.32,34.32,0,0,0-7.16,1.56"/><path class="cls-1" d="M99.85,73.62A36.71,36.71,0,0,1,116.17,71c1.22,0,5.13-1.74,6.17-2.35a24,24,0,0,0,3.39-3.47c-2.59-1.84-9-.47-9.53-.36h0"/><path class="cls-1" d="M100.29,78.69a57.69,57.69,0,0,0,6,.55A39.46,39.46,0,0,0,125.73,75a7.47,7.47,0,0,1-3.91-1.75A14.78,14.78,0,0,0,116.17,71"/><path class="cls-1" d="M114.74,78.67s7.7,1.22,11,3.41a17.32,17.32,0,0,1-14.68,3.85c-5.76-1.19-9.11-2-11.31-2.29"/><path class="cls-1" d="M116.48,86.28s6.32,3,8.76,6.36a26,26,0,0,1-6.53,1.51c-2.66.07-9.91-3-15.15-5.46a16.89,16.89,0,0,0-4.92-1.37"/><path class="cls-1" d="M97.23,90.39c.63.11,1.29.24,2,.38,3.29.71,8.13,4.86,11.61,7.49a19.7,19.7,0,0,0,2.89,1.92c3,1.44,9,.72,9,.72-.29-2.3-7.18-6.75-7.18-6.75"/><path class="cls-1" d="M110.79,98.26s3,3.36,3.18,5.73a6.38,6.38,0,0,0,1.72,3.8s-13.27-2.41-21.3-13.27"/><path class="cls-1" d="M90.67,98.1c1.51,1.68,3.41,3.92,5.78,6.89a36.43,36.43,0,0,0,4.71,5c6,5.08,9.94,4,9.94,4-.22-5-6.79-10.68-6.79-10.68"/><path class="cls-1" d="M101.16,110s3.83,7.68,3.15,11.27c0,0-6.51-2.44-8.41-5-1.52-2-4.42-10.88-8.38-16.05"/><path class="cls-1" d="M96.4,116.83s2,7.33.36,9.2c0,0-2.18-1.94-4.55-4.31s-2.66-10-4.52-14.14c-.83-1.83-2-4.07-3-6"/><path class="cls-1" d="M79.08,103.16a34.09,34.09,0,0,0,.49,6.38,35.76,35.76,0,0,0,1.53,5.88.08.08,0,0,0,0,0,36.35,36.35,0,0,0,6.08,11,8.73,8.73,0,0,1,1.22-4.09c1.29-2.44,1.14-8,1.14-8"/><path class="cls-1" d="M74.18,103.44c-.07,3.71-.56,8.56-.13,14a15.45,15.45,0,0,0,5.81,10.92c2.71-3.82,1.34-12.33,1.25-12.88a.08.08,0,0,1,0,0"/><path class="cls-1" d="M70.39,103c-.3,6.53-3.43,14.45-3.73,16.8a5.47,5.47,0,0,0,0,.6c.09,3.11,3.16,9.32,3.16,9.32,2.09-2,4.08-9.92,4.08-9.92"/><path class="cls-1" d="M67.45,102.25a34.09,34.09,0,0,1-5.27,12.62,6.66,6.66,0,0,0-.73,1.16,0,0,0,0,1,0,0,14.33,14.33,0,0,0-1.2,5.77,24.85,24.85,0,0,0,.83,6.52c3.58-1.69,5.56-7.93,5.56-7.93"/><path class="cls-1" d="M61.45,116s0,0,0,0a12.34,12.34,0,0,1-5.22,4.2,10.41,10.41,0,0,0-2.84,1.93s-.07.53,0-3.43a23.64,23.64,0,0,1,1.42-7.1,0,0,0,0,0,0,0,31.21,31.21,0,0,1,3.79-7.42,42.26,42.26,0,0,1,3.51-4.41"/><path class="cls-1" d="M58,96.63c-2.28,2.63-7.08,8.19-9.51,11.24a7.78,7.78,0,0,0-.7,1.06c-2.14,3.93-1.46,10.2-1.46,10.2,4.26-.66,8.25-7.08,8.5-7.48a0,0,0,0,0,0,0"/><path class="cls-1" d="M55.29,93.69c-5,5.28-12.74,9.83-14.22,11.56h0c-1.71,2-3.49,8.42-3.49,8.42,3.28.15,10.19-4.75,10.19-4.75"/><path class="cls-1" d="M53.58,91.18c-3.5,3.15-9,5.47-11.81,6.49h0c-.79.3-1.35.49-1.57.56-1.12.37-2.31,1.49-4,2.76s-4,6.24-4,6.24c2.47.91,8.47-1.83,8.79-2h0"/><path class="cls-1" d="M41.77,97.67h0a20.51,20.51,0,0,1-5.51.62,13.68,13.68,0,0,1-6.06-1.06s5.11-5.61,9.84-7.61A107.36,107.36,0,0,1,51.24,86"/><path class="cls-1" d="M40.7,89.21a26.45,26.45,0,0,1-5.55,1.69,15.9,15.9,0,0,1-8-.27s3.68-5.34,7.44-6.76a40.65,40.65,0,0,1,10.92-2.26,26.61,26.61,0,0,0,4.63-.84"/><path class="cls-1" d="M34.61,83.86s-6.61-.15-11-2.47c0,0,4.13-2.81,5.48-3.77a8.8,8.8,0,0,1,3.6-1.19"/><path class="cls-1" d="M34.62,70.5s-4.21-.68-5.86,0-5.11,2.25-5.11,2.25,2.9,2.3,9.09,3.68A50.31,50.31,0,0,0,50.09,77"/><path class="cls-1" d="M52,68.51A50.34,50.34,0,0,0,38.6,63.3c-4.81-.89-10.9.51-10.9.51A8.48,8.48,0,0,1,31.08,67c.85,1.82,8.69,7.56,19.33,7.07"/><path class="cls-1" d="M38.6,63.3s-7.82-3.59-8.72-7.13a17.34,17.34,0,0,1,10.37,0c4.32,1.4,10.38,5.81,14.25,7.89"/><path class="cls-1" d="M57,61C50,56.83,43.83,49,43.83,49h0a.66.66,0,0,0-.18-.18h0a7.49,7.49,0,0,0-3.16-1c-3-.46-6.53-1.12-6.53-1.12-.08,4,7.13,9.32,7.13,9.32"/><path class="cls-1" d="M43.83,49S39,44.66,39.34,39.92c0,0,5,1.28,7.12,3.46s3.41,3.79,3.41,3.79"/><path class="cls-1" d="M100.3,78.34c0,.12,0,.24,0,.35a25.18,25.18,0,0,1-.55,5,23.7,23.7,0,0,1-1.1,3.68,24.35,24.35,0,0,1-1.41,3.07,25,25,0,0,1-2.84,4.13,23.77,23.77,0,0,1-3.72,3.58,22.19,22.19,0,0,1-3.15,2.11,22.88,22.88,0,0,1-2.86,1.39,24.64,24.64,0,0,1-5.58,1.56,25,25,0,0,1-3.9.3l-1,0a24.69,24.69,0,0,1-3.79-.44,23.43,23.43,0,0,1-2.94-.75h0A24.7,24.7,0,0,1,58,96.63a23.38,23.38,0,0,1-2.68-2.94,23.62,23.62,0,0,1-1.71-2.51,24.82,24.82,0,0,1-3.41-10.41q-.12-1.2-.12-2.43c0-.47,0-.93,0-1.39a24,24,0,0,1,.32-2.84A25.08,25.08,0,0,1,52,68.51h0a24.67,24.67,0,0,1,2.45-4.45A24.35,24.35,0,0,1,57,61a21.21,21.21,0,0,1,2-1.89A24.13,24.13,0,0,1,63.7,56a23.64,23.64,0,0,1,4.82-1.88,24.56,24.56,0,0,1,4-.77c.86-.08,1.73-.13,2.61-.13h.14a24.94,24.94,0,0,1,5.23.58A25.17,25.17,0,0,1,89,57.33a23,23,0,0,1,2.11,1.56,23.91,23.91,0,0,1,3.68,3.71,24.35,24.35,0,0,1,2.69,4.1,23.1,23.1,0,0,1,1.66,4,22.35,22.35,0,0,1,.75,3A24.45,24.45,0,0,1,100.3,78.34Z"/></svg>