<svg id="Layer_1" data-name="Layer 1" xmlns="http://www.w3.org/2000/svg" viewBox="0 0 150 150"><defs><style>.cls-1{fill:none;stroke:#000;stroke-linecap:round;stroke-linejoin:round;stroke-width:1.03px;}</style></defs><title>icons_</title><path class="cls-1" d="M72.46,52.23c.41,1.24-1.6,3-4.48,4s-5.57.74-6-.49,2-2.14,4.87-3.1S72.05,51,72.46,52.23Z"/><path class="cls-1" d="M71.81,54c8.84.88,15,10.54,17.71,16.36"/><path class="cls-1" d="M63.82,56.77s-5.61,7.61-4.36,16.65a50.27,50.27,0,0,0,3.16,11.17h0"/><path class="cls-1" d="M92.56,84.74c.15,4.68-.62,9.49-3.7,11.82A13.46,13.46,0,0,1,74.5,98.35"/><path class="cls-1" d="M64.55,45.63c-1,.88-3.53-.3-5.62-2.63s-3-4.94-2-5.82,2.84,1,4.94,3.34S65.56,44.75,64.55,45.63Z"/><path class="cls-1" d="M56.72,39.31S47.17,37.06,39,41.83c-5.09,3-15.14,11.33-17,19s-.06,14,6.81,17.91,19.32-4.57,22.61-7.19,14.62-15,11.2-25.82"/><path class="cls-1" d="M71.35,116.59c-1-.81-.31-3.4,1.58-5.78s4.26-3.66,5.28-2.85-.5,2.86-2.39,5.25S72.37,117.4,71.35,116.59Z"/><path class="cls-1" d="M76.11,108.08s.55-9.44-5.42-16.33C67,87.43,57.22,79.34,49.53,78.85S36,81.21,33.43,88.39s7.67,17.53,10.75,20.19,16.91,11.29,26.76,6.19"/><path class="cls-1" d="M124.19,96.66c-1-.67-.48-3,1.09-5.32s3.62-3.56,4.59-2.89-.27,2.62-1.84,4.88S125.16,97.33,124.19,96.66Z"/><path class="cls-1" d="M128,88.68s-.06-8.56-5.88-14.42c-3.64-3.68-12.91-10.4-19.88-10.39s-12.07,2.95-14,9.59,8,15.37,10.93,17.6,16,9.18,24.55,4"/></svg>