<svg id="Layer_1" data-name="Layer 1" xmlns="http://www.w3.org/2000/svg" viewBox="0 0 150 150"><defs><style>.cls-1,.cls-2,.cls-3,.cls-4,.cls-5,.cls-6,.cls-7{fill:none;stroke:#000;stroke-miterlimit:10;}.cls-2{stroke-width:0.9px;}.cls-3{stroke-width:0.87px;}.cls-4{stroke-width:0.93px;}.cls-5{stroke-width:1.01px;}.cls-6{stroke-width:0.97px;}.cls-7{stroke-width:1.08px;}</style></defs><title>icons_</title><path d="M99.06,30.6C46,75.17,39,131.53,39,131.53l5.63,1.71S45,98.63,68.6,63.3"/><path d="M38.35,82.66s.81,10,2.42,13.53,5.55,10.13,5.55,10.13S40.05,86.77,38.35,82.66Z"/><path d="M42.1,72.13s-.34,15.49,6.51,27.68"/><path d="M47.3,64a91.55,91.55,0,0,0,4.43,29s-1.42-12.15-2.21-15.14S47.3,64,47.3,64Z"/><path d="M50.64,57a91.55,91.55,0,0,0,4.43,29s-1.42-12.15-2.22-15.14S50.64,57,50.64,57Z"/><path d="M55.37,50.43a91.6,91.6,0,0,0,3,29.22s-.83-12.2-1.47-15.22S55.37,50.43,55.37,50.43Z"/><path d="M59.67,45.12A81.33,81.33,0,0,0,62.43,73.4s-.58-11.26-1.23-14.28S59.67,45.12,59.67,45.12Z"/><path d="M65.82,45.12S64.48,60.25,66.05,67C66.05,67,66.92,48.59,65.82,45.12Z"/><path d="M72.23,39.26s-3.34,7.26-2.37,22.51c0,0,.64-8.12,1.1-11.33s1.32-4.82,1.27-6.21S72.23,39.26,72.23,39.26Z"/><path d="M77.36,33.43a36.54,36.54,0,0,0-1.34,7c-.1,2.83-.58,6.9-.58,8.23v6s1.71-7.2,1.6-9.52.37-6.06.32-6.49a8.22,8.22,0,0,1,0-1.92A33.11,33.11,0,0,0,77.36,33.43Z"/><path d="M82.55,28.4a24.92,24.92,0,0,0-1.77,5c-.21,1.71-.8,5.29-.8,6.36s.06,1.88,0,2.68-.24,7.19-.24,7.19,1.74-9.17,1.85-10.4.37-7.38.37-7.92A28.28,28.28,0,0,1,82.55,28.4Z"/><path d="M88.2,23.76a50.26,50.26,0,0,0-2.77,8.75c-.49,3.3-1.36,6.93-1.28,8.12s-.35,4.74-.23,5.07,1.94-4.84,2.14-6.44,1.39-7,1.39-7.91a35,35,0,0,1,.21-4C87.78,27,88.2,23.76,88.2,23.76Z"/><path d="M95.5,20.3a13.2,13.2,0,0,0-3.76,6.8c-1,4.46-2.74,9.3-2.65,12.81,0,0,2.73-9.88,3.25-10.87s1.47-4,1.92-4.91A32.08,32.08,0,0,0,95.5,20.3Z"/><path d="M100.2,17.74A79.16,79.16,0,0,0,96.53,27a27.17,27.17,0,0,1-1.42,3.92c-.6,1.73-1.48,4.87-1.48,4.87l.72-.54a66.81,66.81,0,0,0,3.21-7.49c.91-2.91,1.11-3.4,1.69-5.46A43.93,43.93,0,0,0,100.2,17.74Z"/><path d="M48.61,106.93s12.58-6.44,20.88-7.49C69.49,99.44,56.54,106.24,48.61,106.93Z"/><path d="M50.13,101.15s16.09-7.53,23.57-7.8C73.7,93.35,58.25,99.87,50.13,101.15Z"/><path d="M52.46,94.89s9.62-4.72,13-4.63,6.34-1.46,7.07-1.46a21.57,21.57,0,0,0,2.69-.41s-8.3,3-11.08,3.92A58,58,0,0,1,52.46,94.89Z"/><path d="M54.24,90s4.75-2.79,5.7-3.17c2.87-1.15,10.12-2.61,11.35-3.21a14.73,14.73,0,0,1,4.09-1.06,10.19,10.19,0,0,0,2.05-.48Z"/><path d="M57.14,82.75s6.38-1.65,7.75-2,4.47-1.32,5.29-1.46,2-.5,4.38-.77,4.24-.76,4.47-.72S68.54,81.51,66.8,81.7Z"/><path d="M60.37,77.18a13.32,13.32,0,0,1,8.12-2.6c5,0,8.62-1.41,9.85-1.55a7.24,7.24,0,0,0,2.51-.9S76.38,73.88,73.14,75A16,16,0,0,1,67.26,76C66.07,76,60.37,77.18,60.37,77.18Z"/><path d="M62.68,72.34s4.89-2.7,6.71-2.91a47.82,47.82,0,0,0,7.14-1.53c1.17-.45,6.2-2.55,7-2.86,0,0-6.22,3.35-8.1,4.14a18.15,18.15,0,0,1-3.94,1.12c-2.14.53-2.23-.21-3.51.48A33.7,33.7,0,0,1,62.68,72.34Z"/><path d="M65.91,67.33S80.53,61,88.62,60.5C88.62,60.5,72.48,66.45,65.91,67.33Z"/><path d="M69.86,61.77s16.87-5.61,20.7-5.61A67.72,67.72,0,0,1,69.86,61.77Z"/><path d="M75.29,55s15.5-5,20.06-4.27C95.35,50.75,83.91,55.3,75.29,55Z"/><path d="M81.14,48.51s11.75-3.26,17.52-3.6C98.66,44.91,86.56,49.65,81.14,48.51Z"/><path d="M86.46,42.82s13.31-2.9,16.23-3.31a28,28,0,0,0,4.72-1s-8.48,3.85-11.46,4a50.93,50.93,0,0,0-6.4.35A10.5,10.5,0,0,1,86.46,42.82Z"/><path d="M90.86,38a88.14,88.14,0,0,1,9.6-1.89,41.22,41.22,0,0,0,6.8-1.37s-10.39,3-12.44,3.2A22.36,22.36,0,0,1,90.86,38Z"/><path d="M96.32,32.94s5.39-.57,8-1.13,4.88-.95,4.88-.95-4.54,1.63-6.45,2.08a27.74,27.74,0,0,1-5.26.92A1.67,1.67,0,0,1,96.32,32.94Z"/><path d="M105.66,18.24a81.62,81.62,0,0,0-4.89,7.5,46.62,46.62,0,0,0-2.11,5.06s3-5.11,4.53-7.3A20.39,20.39,0,0,0,105.66,18.24Z"/><path d="M109.73,19.94s-6.23,5-7.13,6.28-3.54,4.38-3.54,4.38,3-2.88,5-4.67S109.45,22.2,109.73,19.94Z"/><path d="M109.6,25.1s-9.72,4.33-11,5.74C98.59,30.84,108.08,27.51,109.6,25.1Z"/><path d="M110.09,27.8c.14.71-11.5,3-11.5,3Z"/><path class="cls-1" d="M56.69,126.19a6.79,6.79,0,0,1-.43-2.89c.19-1.35.09-2.21.2-2.64s1.09-2.7,1.4-3.62,1-2.34,2.15-2.52a5.6,5.6,0,0,0,2.21-.68,4.14,4.14,0,0,1,2.4-.61,11.45,11.45,0,0,1,7.8,2.45c3.56,2.71,3.8,6,2,10.08a9.8,9.8,0,0,1-9.52,5.46C61.54,131,59.27,129.93,56.69,126.19Z"/><path class="cls-1" d="M63.14,113.42s-.67-2.77.31-4.31,1.9-4.11,4.36-4.73,4-1.78,6.39-1.84,8-.8,12.59,2.89,5.22,6,3.81,9.52S83,121.4,75.51,121.46"/><path class="cls-1" d="M85,104.24s-1.93,1.73-2.85,2.69-1.47,1-1.29,1.69,1.48,2.79,1.48,3.33-.86,2.32-.62,2.81,1.54,1.11,1.91,2a25.86,25.86,0,0,1,.81,3"/><ellipse class="cls-1" cx="64.94" cy="123.07" rx="4.07" ry="3.15"/><path class="cls-1" d="M39.09,130.52s-5.6-4.72-8.24-2.87a11.13,11.13,0,0,0-3.7,4.84"/><path class="cls-1" d="M39,129.86s-1.4-6.08-1.05-7.63"/><ellipse class="cls-2" cx="19.62" cy="96.81" rx="1.54" ry="1.91"/><path class="cls-2" d="M23.23,100.22a1.56,1.56,0,0,1-1.41,1.13,1.75,1.75,0,0,1-1.54-1.91,2.08,2.08,0,0,1,.34-1.18s0,0,0,0a1.18,1.18,0,0,1,.19-.25h0a1.35,1.35,0,0,1,1-.45h.06"/><ellipse class="cls-2" cx="18.72" cy="100.84" rx="1.91" ry="1.54" transform="translate(-82.87 86.7) rotate(-71.56)"/><ellipse class="cls-2" cx="19.98" cy="104.03" rx="1.91" ry="1.54" transform="translate(-85.03 90.07) rotate(-71.56)"/><path class="cls-2" d="M25,97.13a.05.05,0,0,0,0,0"/><path class="cls-2" d="M25.84,99a2.2,2.2,0,0,1-.28,1l0,0a1.28,1.28,0,0,1-.24.32h0a1.34,1.34,0,0,1-1,.43,1.43,1.43,0,0,1-1.08-.54A2.1,2.1,0,0,1,22.77,99h0"/><ellipse class="cls-2" cx="26.51" cy="97.25" rx="1.54" ry="1.91"/><ellipse class="cls-2" cx="29.93" cy="97.52" rx="1.54" ry="1.91"/><ellipse class="cls-2" cx="23.41" cy="97.25" rx="1.54" ry="1.91"/><ellipse class="cls-2" cx="26.51" cy="101.47" rx="1.54" ry="1.91"/><ellipse class="cls-2" cx="23.41" cy="102.88" rx="1.91" ry="1.54" transform="matrix(0.32, -0.95, 0.95, 0.32, -81.59, 92.53)"/><ellipse class="cls-2" cx="24.66" cy="106.07" rx="1.91" ry="1.54" transform="translate(-83.76 95.91) rotate(-71.56)"/><path class="cls-2" d="M21.17,105h0a1.76,1.76,0,0,1,1.52,1.91,2.13,2.13,0,0,1-.33,1.16,1.29,1.29,0,0,1-.22.3,1.36,1.36,0,0,1-1,.45h0a1.76,1.76,0,0,1-1.54-1.91,2.21,2.21,0,0,1,.24-1"/><path class="cls-2" d="M20,108.61a1.93,1.93,0,0,1-2.05-.06,2.18,2.18,0,0,1-.83-.88,1.43,1.43,0,0,1-.14-.34,1.39,1.39,0,0,1,.12-1.08h0a1.76,1.76,0,0,1,2.43-.34"/><ellipse class="cls-2" cx="23.4" cy="109.54" rx="1.54" ry="1.91"/><ellipse class="cls-2" cx="20.29" cy="110.95" rx="1.91" ry="1.54" transform="translate(-91.38 95.1) rotate(-71.56)"/><ellipse class="cls-2" cx="21.55" cy="114.14" rx="1.91" ry="1.54" transform="translate(-93.55 98.47) rotate(-71.56)"/><ellipse class="cls-2" cx="27.29" cy="109.57" rx="1.91" ry="1.54" transform="translate(-85.61 111.76) rotate(-77.12)"/><ellipse class="cls-2" cx="28.85" cy="112.63" rx="1.91" ry="1.54" transform="translate(-87.37 115.65) rotate(-77.12)"/><ellipse class="cls-2" cx="25.51" cy="113.31" rx="1.91" ry="1.54" transform="translate(-84.55 76.2) rotate(-58.68)"/><ellipse class="cls-2" cx="26.03" cy="116.7" rx="1.91" ry="1.54" transform="translate(-87.19 78.27) rotate(-58.68)"/><ellipse class="cls-2" cx="29.93" cy="101.48" rx="1.91" ry="1.54" transform="translate(-75.67 108.03) rotate(-77.12)"/><ellipse class="cls-2" cx="31.49" cy="104.53" rx="1.91" ry="1.54" transform="translate(-77.43 111.93) rotate(-77.12)"/><ellipse class="cls-3" cx="34.39" cy="102.58" rx="1.41" ry="1.95" transform="translate(-34.82 19.42) rotate(-21.23)"/><path class="cls-4" d="M34.76,104.47a2.07,2.07,0,0,0-.16.64,3.25,3.25,0,0,0,.22,1.43,3,3,0,0,0,1,1.33,1.23,1.23,0,0,0,1.17.26c.73-.28,1-1.45.5-2.61a2.3,2.3,0,0,0-1.77-1.65"/><path class="cls-5" d="M35.77,107.87c.06.8-.18,1.45-.65,1.63-.72.28-1.74-.59-2.27-2a4.11,4.11,0,0,1-.3-1.75"/><path class="cls-5" d="M33,104.68a.54.54,0,0,1,.18-.11,1.38,1.38,0,0,1,1.4.54"/><ellipse class="cls-2" cx="28.15" cy="105.21" rx="1.91" ry="1.54" transform="translate(-76.36 74.56) rotate(-58.68)"/><ellipse class="cls-2" cx="31.17" cy="108.24" rx="1.54" ry="1.91" transform="translate(-81.29 114.51) rotate(-77.12)"/><ellipse class="cls-2" cx="32.13" cy="112.27" rx="1.91" ry="1.54" transform="translate(-84.47 118.57) rotate(-77.12)"/><ellipse class="cls-2" cx="33.7" cy="115.32" rx="1.91" ry="1.54" transform="translate(-86.24 122.47) rotate(-77.12)"/><ellipse class="cls-2" cx="37.95" cy="113.72" rx="1.91" ry="1.54" transform="translate(-81.37 125.37) rotate(-77.12)"/><ellipse class="cls-2" cx="36.13" cy="117.22" rx="1.91" ry="1.54" transform="translate(-86.19 126.31) rotate(-77.12)"/><ellipse class="cls-2" cx="38.64" cy="117.5" rx="1.91" ry="1.54" transform="translate(-84.52 128.97) rotate(-77.12)"/><ellipse class="cls-2" cx="37.07" cy="120.34" rx="1.91" ry="1.54" transform="translate(-88.5 129.66) rotate(-77.12)"/><ellipse class="cls-2" cx="30.36" cy="116" rx="1.91" ry="1.54" transform="translate(-84.52 81.63) rotate(-58.68)"/><ellipse class="cls-2" cx="28.85" cy="119.39" rx="1.91" ry="1.54" transform="matrix(0.52, -0.85, 0.85, 0.52, -88.14, 81.97)"/><ellipse class="cls-2" cx="30.89" cy="122.23" rx="1.91" ry="1.54" transform="matrix(0.52, -0.85, 0.85, 0.52, -89.59, 85.08)"/><path class="cls-2" d="M32.56,122.25a.23.23,0,0,0-.07.1h0"/><path class="cls-2" d="M31.9,123.54a1.75,1.75,0,0,0,.8,1.39.88.88,0,0,0,.22.1A1.84,1.84,0,0,0,35,124.1a2,2,0,0,0,.23-.5,2.16,2.16,0,0,0,.08-1"/><ellipse class="cls-6" cx="26.95" cy="122.89" rx="1.55" ry="2.22" transform="translate(-92.04 82.03) rotate(-58.68)"/><path class="cls-6" d="M32.92,125a1.43,1.43,0,0,1-.14.34c-.45.73-1.66.81-2.7.18A2.54,2.54,0,0,1,28.87,124h0a1.15,1.15,0,0,1,.1-.88.08.08,0,0,1,0,0,1.12,1.12,0,0,1,.25-.28"/><ellipse class="cls-6" cx="32.85" cy="119" rx="1.55" ry="2.22" transform="translate(-85.89 85.21) rotate(-58.68)"/><path class="cls-6" d="M34.81,120a2.64,2.64,0,0,1,.74.88,1.51,1.51,0,0,1,.17.52,1.24,1.24,0,0,1-.13.87.84.84,0,0,1-.27.29,2.19,2.19,0,0,1-2.43-.12,2.75,2.75,0,0,1-.33-.23l-.05,0"/><line class="cls-6" x1="31.65" y1="120.5" x2="31.65" y2="120.49"/><ellipse class="cls-7" cx="24.23" cy="119.57" rx="1.52" ry="2.78" transform="translate(-90.51 78.11) rotate(-58.68)"/><path class="cls-7" d="M24.57,117.85a.72.72,0,0,1-.25.07"/><path class="cls-7" d="M22.66,117.66h0a3.88,3.88,0,0,1-.7-.36,3.67,3.67,0,0,1-1.63-1.81"/><path class="cls-7" d="M23.05,114.46a3.57,3.57,0,0,1,.47.25,4.54,4.54,0,0,1,1.25,1.1"/><ellipse class="cls-2" cx="35.81" cy="111.27" rx="1.54" ry="1.91" transform="translate(-70.89 63.53) rotate(-48.06)"/><path class="cls-6" d="M21.18,105.07a.13.13,0,0,0,0-.06"/><path class="cls-6" d="M21.2,108.83a2.57,2.57,0,0,1-.16.37"/><path class="cls-6" d="M19.55,102.32h0"/><path class="cls-6" d="M34.91,122.89s2.48,5.21,3.48,6.62"/></svg>