<svg id="Layer_1" data-name="Layer 1" xmlns="http://www.w3.org/2000/svg" viewBox="0 0 150 150"><defs><style>.cls-1{fill:none;stroke:#000;stroke-linecap:round;stroke-linejoin:round;stroke-width:0.99px;}</style></defs><title>icons_</title><path class="cls-1" d="M65.84,33.21s6.18,17,12.65,19.62,10.87,6,13.21,7.22,11,5.15,13.78,5.44,9.75-1.32,16.12,0,6.75,1,7.4.93-1,2.72-6.09,3-7.59,1.31-11.81,1.22-11,1.59-19.3-3.28c0,0,6.27,17,1,31.08S75.57,116.92,75.48,118.2s-.92,2.56-1.65,2.56-4.94-3.88-7.5-5c-2.17-1-14.91-6.4-18.84-15.91s-6-18.48-4.21-26a31,31,0,0,1-16.83-1.92,49.72,49.72,0,0,0,10.52-1,51.74,51.74,0,0,0,7.5-2.47s-8.64,1.16-13.76-1a19.52,19.52,0,0,1-6.55-4.67s14.27-7.13,27.17-4.39c8.5-6,17.21-15.15,17.69-17.78"/><path class="cls-1" d="M44.47,68.44s14.8-1.37,21.42-8.89"/><path class="cls-1" d="M58.91,64.53s3.7,7.69,7.32,10.86,9.09,4.73,14.25-1.15c3.91-4.46,3.14-12.67,3.14-12.67a82.67,82.67,0,0,0,8.18,5.79"/><path class="cls-1" d="M68.89,41.1S68.54,58.38,79.13,56"/><path class="cls-1" d="M45.37,68.34a19.37,19.37,0,0,0-2.27,6.34"/><path class="cls-1" d="M44.47,27.27a71,71,0,0,0,25.78,5.94"/></svg>