<svg id="Layer_1" data-name="Layer 1" xmlns="http://www.w3.org/2000/svg" viewBox="0 0 150 150"><defs><style>.cls-1,.cls-2,.cls-3,.cls-4{fill:none;stroke:#000;}.cls-1,.cls-2,.cls-3{stroke-linecap:round;stroke-linejoin:round;}.cls-1{stroke-width:1.26px;}.cls-2{stroke-width:1.22px;}.cls-4{stroke-miterlimit:10;}</style></defs><title>icons_</title><path class="cls-1" d="M53.26,60c-12.73-.32-19.14-4.29-21.19-15.63-2-11.13,11-20.48,24.59-20.48,12.07,0,22.92,5.33,25.17,14.47"/><path class="cls-2" d="M79.48,44.58c-.81,3.51.81,8.61,3.37,13.63a35,35,0,0,0,7.92,10.16,21.44,21.44,0,0,0,7.75,4.73c12.28,3.84,22.92-1.55,23.77-12s-8.42-22.12-20.7-26C93.53,32.58,86.17,34,81.83,38.31c0,0-2.23,10.94-8.21,10.13"/><path class="cls-2" d="M78.67,51.08c-.26-.22-.52-.42-.79-.62a13.37,13.37,0,0,0-4.26-2c-7.5-2-15.66,2.9-20.36,11.51a31.28,31.28,0,0,0-2.76,6.9c-3.43,12.69,1.35,25,10.69,27.55S80.88,88.69,84.31,76a30.71,30.71,0,0,0,1-11.1C83.47,55.5,78.67,51.08,78.67,51.08Z"/><path class="cls-1" d="M52.77,60.9S35.19,61.26,25,81.09a5.16,5.16,0,0,1,3.39-.63c1.84.35,13,1.52,21.26-1.81"/><path class="cls-1" d="M25.74,80.73s19.41-7.24,24-10.08"/><path class="cls-1" d="M77.31,88.75a100.08,100.08,0,0,0,6,10.59c4.55,6.89,19.27,17.72,19.73,18h0a43.77,43.77,0,0,0-.84-5.74c-.84-4.62-.14-12.6-4.26-22.83S85.12,72,85.12,72"/><path class="cls-1" d="M82.63,80.73s14.43,22.94,20.45,36.66"/><path class="cls-3" d="M88.74,34.55l6.13-6.26c-1.25-3.8.6-4.43,3.87-3.59L107,20.56s-1.86,6.46-1.86,6.65-5.57,7.34-5.57,7.34"/><ellipse class="cls-4" cx="60.6" cy="89.57" rx="1.86" ry="4.56" transform="translate(-45.98 107.87) rotate(-65.66)"/><ellipse class="cls-4" cx="115.2" cy="67.6" rx="4.56" ry="1.86" transform="translate(-14.06 101.26) rotate(-45)"/></svg>