<svg id="Layer_1" data-name="Layer 1" xmlns="http://www.w3.org/2000/svg" viewBox="0 0 150 150"><defs><style>.cls-1,.cls-2{fill:none;stroke:#000;stroke-linecap:round;stroke-linejoin:round;}.cls-2{stroke-width:1.03px;}</style></defs><title>icons_</title><path class="cls-1" d="M75.66,35.91s.5,9.45.5,14.45"/><path class="cls-1" d="M75.91,40.24a16.81,16.81,0,0,1-2.36,1.9c-3,2-19.87,13.75-26.18,17.23-5.84,3.23-23,9.88-30.36,11.91S6.66,74.11,5.58,74.57s14.17,2.54,36.56-8.17S72.76,42.93,73.55,42.14"/><path class="cls-1" d="M75.75,38.18a12.46,12.46,0,0,0,.85,2.29c4.69,8.65,18.57,20.2,31.53,26.36,15.76,7.49,25.62,5,25.62,5-2.22-.69-9.63-3.63-24.23-10.58-21.76-10.36-27.64-17-32.92-20.8"/><ellipse class="cls-2" cx="75.93" cy="76.57" rx="20.16" ry="25.89"/><path class="cls-2" d="M73.85,102.34a5,5,0,0,1,1.33,4c-.74,3.22-2.83,6.73-3.87,10a5.8,5.8,0,0,0,5.33,7.19c4,.09,6.28-4.24,5-7.37s-3.5-7-3.5-9.86a10.81,10.81,0,0,1,1.22-4.25"/></svg>