<svg id="Layer_1" data-name="Layer 1" xmlns="http://www.w3.org/2000/svg" viewBox="0 0 150 150"><defs><style>.cls-1{fill:none;stroke:#000;stroke-linecap:round;stroke-linejoin:round;stroke-width:1.03px;}</style></defs><title>icons_</title><path class="cls-1" d="M105,56.84c1.65,6.84,3.81,13.31,4.67,20,1.09,8.53,1.13,17.19,1.66,26.4-15.23-3-29.76.4-44.49,4.66-1-4.85-2.5-9.56-2.8-14.34-.32-5,.49-10.14.89-15.2a2.08,2.08,0,0,1,1-1.4C78.74,70.3,91.57,63.73,105,56.84Z"/><path class="cls-1" d="M30.47,72.11c1.82-2.31,3.47-4.25,4.94-6.32,4.2-5.92,6-12.34,4.41-19.66a70.26,70.26,0,0,1-1.63-12.32c-.09-2.21,1-4.45,1.66-7.29L68.16,38.06C67,44.73,65.7,51.13,64.85,57.58c-.61,4.64-.55,9.37-1,14a3,3,0,0,1-1.75,1.93,42.13,42.13,0,0,1-23.6.89C35.9,73.84,33.34,73,30.47,72.11Z"/><path class="cls-1" d="M66.79,72.66c.18-10.39.11-20.52,2.4-30.47.81-3.52.88-3.48,4.33-3.18,3,.25,25-2,27.41-3.08,1.44-.61,2.65-.1,2.81,1.52a95.57,95.57,0,0,1,.53,9.71c0,1.88-.76,3.76-.84,5.65a2.76,2.76,0,0,1-2.05,2.74c-7.53,3.27-15.1,6.46-22.49,10C74.82,67.52,71.06,70.13,66.79,72.66Z"/><path class="cls-1" d="M35.93,77.33,48,79.7c.34,2.07,1.31,6.2,1.06,6.76-1.47,3.33-6.5,4.51-8.47,6.64-2.08-1.67-2-1.65-4-3.19a6,6,0,0,1-2.36-6.53C34.69,81.3,35.38,79.27,35.93,77.33Z"/><path class="cls-1" d="M57.32,89.17A5.36,5.36,0,0,0,54.15,85c-1.54-.65-3.57-4-3.82-6.18,2.12,0,4.09.09,6,0s3.78-.42,6-.67c-.05,4,.89,7.82-.63,11.7-.44,1.14-.14,2.58-.11,3.87,0,1.72.15,3.44.23,5.16C61.49,99,58,92,57.32,89.17Z"/><path class="cls-1" d="M63.2,113.1c-5.23,0-12.75-4.45-14.21-8.23l6-6.55c.93-1,1.74-1,2.84-.07A44.19,44.19,0,0,0,63,101.91c2,1.26,2,3.11,1.61,5S63.68,110.92,63.2,113.1Z"/><path class="cls-1" d="M37,53.42c.66,7.12-3.12,11.88-7,16.59l-.79-.17c-.58-3.9-1.29-7.79-1.63-11.71-.07-.79,1.12-2.1,2-2.46A76.47,76.47,0,0,1,37,53.42Z"/><path class="cls-1" d="M47.5,102.26l-4.24-6.21c2.14-2.25,4.07-4.72,6.47-6.56.84-.64,3-.07,4.3.57,1.75.89,1.67,4.92.13,6.27C52,98.25,49.8,100.21,47.5,102.26Z"/></svg>