<svg id="Layer_1" data-name="Layer 1" xmlns="http://www.w3.org/2000/svg" viewBox="0 0 150 150"><defs><style>.cls-1{fill:none;stroke:#000;stroke-linecap:round;stroke-linejoin:round;stroke-width:1.03px;}</style></defs><title>icons_</title><path class="cls-1" d="M135.77,84.7h3.41V95.15H13.23V86.27l8.53-4.68-1.18-7.24H26l4.48-7.42h6.38L42,60.12h4.73l2.76,3.17c1.29-4.62,2.52-9,3.78-13.52h9l1.9,4.48h6.08l2.43,5.52,4-4.32h7.61l5.55,10.31H96l3.34,3.71a15.22,15.22,0,0,0,1.91,0,7.08,7.08,0,0,1,6,1.85,2.91,2.91,0,0,0,1.77.54c1.68.07,3.36,0,5.09,0,.89,1.49,1.75,2.93,2.67,4.49h4.71l2.24,3.13h7.58Z"/></svg>