<svg id="Layer_1" data-name="Layer 1" xmlns="http://www.w3.org/2000/svg" viewBox="0 0 150 150"><defs><style>.cls-1,.cls-2,.cls-3{fill:none;stroke:#000;}.cls-1,.cls-3{stroke-miterlimit:10;}.cls-2{stroke-linecap:round;stroke-linejoin:round;}.cls-3{stroke-width:0.92px;}</style></defs><title>icons_</title><path class="cls-1" d="M57.45,60.22a4.32,4.32,0,0,1-1.4-2.34C56,55,55.48,47.44,59.34,45.09s15.36-5.6,29.38-1.37,17,10.11,21,17.92c-.47.29-1.71,1.3-3.69,2.56a41.09,41.09,0,0,1-11.59,5,42.17,42.17,0,0,1-8.81,1.33c-1.54.07-2.94.1-4.24.08h0C70.58,70.58,67.81,68,67.81,68l-1.36-.87"/><path class="cls-1" d="M16.85,101.64C16.85,87.3,27.1,71,38.44,65.9s17.26-6.75,21.31-5.13S69.46,67.24,66,75,52.34,91.19,43.83,96.25C31.14,103.79,16.85,101.64,16.85,101.64Z"/><path class="cls-1" d="M65.5,75.94a51.15,51.15,0,0,1,10.09,4.41c.6.4,1.18.83,1.73,1.27,3,2.38,5,5.2,5.35,7.81a11.41,11.41,0,0,1-.74,4.7c-1.75,5-6.89,11.53-19.81,10-6.83-.83-13.23-4-18.56-7.72h0"/><path class="cls-1" d="M77.32,81.62s-3.41-6.78,4.11-11h0"/><path class="cls-1" d="M94.49,69.25a30.08,30.08,0,0,1,7.36,2.61s-1.43,1.94-1.43,2.7,2,3.56,3.19,5.55c3.73,6.23-1,19.55-7.73,20.39a18,18,0,0,1-13.95-6.37"/><path class="cls-1" d="M52.07,60.74a18.3,18.3,0,0,0-4.35-5.41C44.78,53,42.47,51.7,35.61,51.45l-.6,0a33.88,33.88,0,0,0-5.75.35,28,28,0,0,0-5.21,1.33c-1.41.49-2.72,1-4.1,1.56a41.24,41.24,0,0,1-9.74,1.95c1.32.66,2.36,3.08,4,6.78h0c.53,1.19,1.13,2.52,1.82,4l.39.81c3.12,6.36,10,8.32,10,8.32"/><line class="cls-1" x1="10.21" y1="56.62" x2="38.91" y2="65.68"/><path class="cls-1" d="M24.05,53.12s5,4.94,6,9.76"/><path class="cls-1" d="M29.25,51.78a26.32,26.32,0,0,1,8.5,13.54"/><path class="cls-1" d="M35.59,51.42s8.54,9.59,8.62,12"/><path class="cls-1" d="M14.22,63.4c3.6,0,5.76.15,9.83-2.21"/><path class="cls-1" d="M16.05,67.37c4.7,1.66,14.61.26,19.8-2.65"/><path class="cls-2" d="M106.08,64.2s6.41,3,10.06,5.29,10,6.65,10.37,7,4.38-.2,6.33.45,5.51,2.1,6.72,2.35l-2.67,2c-.73.57-1.62,2-3.33,1.06a30.31,30.31,0,0,0-11.64-3c-4.81-.09-4.4-.17-4.4-.17s-6.41,3.81-8,4.62S105.2,86,105.2,86"/><path class="cls-1" d="M21.56,92.32c.76-.19,8.82-23.35,33.34-29.18"/><path class="cls-1" d="M36.79,81.62S41,71.1,58.64,66.13h0"/><path class="cls-3" d="M56.37,50.31s24.82-7.78,42.51,3.25"/><path class="cls-3" d="M56.37,53.12c-.31-.42,26.68-4.06,37.41,2.76"/><path class="cls-3" d="M48.71,93.33s17.77,9.41,31.44,4.8"/><path class="cls-3" d="M80.94,96.36s-15.81,1.55-25-5.23"/><path class="cls-1" d="M101.85,71.86s-16.26,5.45-4.68,28.32"/></svg>