<svg id="Layer_1" data-name="Layer 1" xmlns="http://www.w3.org/2000/svg" viewBox="0 0 150 150"><defs><style>.cls-1{fill:none;stroke:#000;stroke-linecap:round;stroke-linejoin:round;stroke-width:0.99px;}</style></defs><title>icons_</title><path class="cls-1" d="M27.93,96.63,49.06,84.54l1.26-12.16L55,66.15l.45-4.23-1.56-1.78.59-1.55-.89-3.41,4.6-5.42,1.41-1.48V45.91l5.64-1.63,6.3-.75,2.59,2.9,9.57-2.9L85,37.31l2.45-.52V34.93l4.6-1.33,6.75,4.74,7,4.16v1.92l5.93,3.86-9.19,14.9,6-.59,7.94,1.71,3.71,10.9,4.3,11.56-1,4.08L125.66,97l-5.19,4.82-1.5-1.59-2.1,3.66-4.71,1.6h-1.51l-2.67.34-6,1.53-4.81-4.85L96,98.72l-9.07-13.3-1.8,7.41s4.68,6.83,4.87,7,3.67,7.57,3.67,7.57l-.38,1.09s.57,1.45.63,1.64-.63.7-.63.7l.25,1.2-2.21,2-2.34.88-2.53-2.27-1.58.06-2.53,1.2-3.85-3.09-3.73-4.18-4.37,5.57.82,3.28-8.53,6.52-3.73-1.65-3.48,2.47-16.37-7.15-7.6-5.12-2.33-3.73h-.82l.31-4.23-1.4-.83-.3-1.7-.3-.7Z"/><path class="cls-1" d="M49.06,84.54l5.44-2.36,2,4.49,4.06.06s2.81,2.65,3,2.83a9.75,9.75,0,0,1,0,2.23l11.13,14.76"/><polyline class="cls-1" points="63.59 89.56 68.62 87.02 67.19 84.53 73.71 78.52 82.34 90.13 85.08 92.83"/><path class="cls-1" d="M55,66.15l1.16,1.79h2.18l3.2,2.52,1.77.28,7.49,6.35,3.55-2.51L83,70.12s-1.66,4.68-1.66,5,2.18,4.48,2.18,4.48l3.39,5.85"/><polyline class="cls-1" points="53.58 55.18 56.83 57.87 60.38 57.87 61.89 61.43 62.83 65.43 62.31 66.99 65.58 68.03 65.28 70.03 64.83 71.36 64.94 72.14"/></svg>