<svg id="Layer_1" data-name="Layer 1" xmlns="http://www.w3.org/2000/svg" viewBox="0 0 150 150"><defs><style>.cls-1{fill:none;stroke:#000;stroke-linecap:round;stroke-linejoin:round;stroke-width:1.03px;}</style></defs><title>icons_</title><path class="cls-1" d="M63.28,85.72c-.87,1.66-1.69,3.33-2.59,5a49.24,49.24,0,0,1-9.4,12.74,26.51,26.51,0,0,1-4.09,2.94,6.07,6.07,0,0,1-2.48.75,2.66,2.66,0,0,1-3.11-2.41,9.26,9.26,0,0,1,.48-4.46,31.4,31.4,0,0,1,4.6-8.67A74.63,74.63,0,0,1,56.1,81a2.45,2.45,0,0,0,.52-.62l-.43.31A68.08,68.08,0,0,1,41.36,90a24.66,24.66,0,0,1-7.27,2.15,8,8,0,0,1-3.64-.28,2.66,2.66,0,0,1-1.87-3.62,11.14,11.14,0,0,1,1.72-3.06A24.14,24.14,0,0,1,37,79.76a69.51,69.51,0,0,1,14.88-6.54,1.19,1.19,0,0,0,.57-.31l-2.29.5A64.79,64.79,0,0,1,34.68,75a22.3,22.3,0,0,1-8.28-1.56,9.24,9.24,0,0,1-2.07-1.24,2.84,2.84,0,0,1-.21-4.6,10.79,10.79,0,0,1,4.38-2.44,36.75,36.75,0,0,1,11.08-1.58,76,76,0,0,1,12.24.88,1.51,1.51,0,0,0,.52,0c-1.93-.51-3.87-1-5.79-1.52a52.35,52.35,0,0,1-14.15-6,15,15,0,0,1-4.33-3.78,9.22,9.22,0,0,1-1.31-2.67,2.34,2.34,0,0,1,1.17-2.7A6,6,0,0,1,31,46.9a22.74,22.74,0,0,1,8.56,1.48,67.65,67.65,0,0,1,15.09,7.73.92.92,0,0,0,.51.18c-.14-.12-.27-.25-.42-.37A70.31,70.31,0,0,1,43.66,45.11a25.49,25.49,0,0,1-4.44-7.4,12.43,12.43,0,0,1-.7-3.71c-.05-2,1.35-3.11,3.35-2.92a9.94,9.94,0,0,1,4.21,1.58,36.2,36.2,0,0,1,9,8.44,80.16,80.16,0,0,1,6.59,9.65,2.39,2.39,0,0,0,.38.52c-.82-1.83-1.67-3.64-2.45-5.49a54.84,54.84,0,0,1-4-13.57A17.76,17.76,0,0,1,56,24.27a1.34,1.34,0,0,1,.07-.18c1-2.69,3-3.31,5.3-1.58a13.09,13.09,0,0,1,3.45,4.43A40.36,40.36,0,0,1,68.69,38.8c.62,3.4,1,6.83,1.5,10.28,0-.34,0-.68,0-1a64.85,64.85,0,0,1,2.33-18.64,19.07,19.07,0,0,1,3-6.26,9.41,9.41,0,0,1,2.12-2,2.62,2.62,0,0,1,3.73.67A8.73,8.73,0,0,1,82.91,26a32.71,32.71,0,0,1-.59,11.29,76.13,76.13,0,0,1-3.68,12.46,1.13,1.13,0,0,0-.09.59c.23-.49.47-1,.71-1.46L80,47.35A61.54,61.54,0,0,1,88.69,34.3a19.65,19.65,0,0,1,6-4.9,8.2,8.2,0,0,1,2.69-.76,2.55,2.55,0,0,1,2.88,2.21,9,9,0,0,1-.47,4.78,30.07,30.07,0,0,1-4,7.68,71.49,71.49,0,0,1-9.72,11.2c-.16.15-.33.28-.5.42l.11.14.47-.35A69,69,0,0,1,99.8,46.05a23.81,23.81,0,0,1,8.13-2.47,10.67,10.67,0,0,1,3.38.22c1.87.45,2.59,1.94,2,3.8A9,9,0,0,1,111.22,51a31.55,31.55,0,0,1-8.49,6.23,74.84,74.84,0,0,1-12.65,5.26,1.31,1.31,0,0,0-.56.29c1.41-.29,2.81-.6,4.23-.86A58,58,0,0,1,109,60.84a19.59,19.59,0,0,1,6.75,1.54,9.3,9.3,0,0,1,2,1.2,2.84,2.84,0,0,1,.14,4.56,9.83,9.83,0,0,1-3.63,2.17,32.76,32.76,0,0,1-10.51,1.82,72.29,72.29,0,0,1-13.62-.87,1,1,0,0,0-.47.06l1.46.34c.49.11,1,.24,1.47.36a64.15,64.15,0,0,1,14.57,5.34,23,23,0,0,1,6.41,4.74A6.61,6.61,0,0,1,115.16,85a2.58,2.58,0,0,1-1.35,3,8.71,8.71,0,0,1-5.39.69,35.9,35.9,0,0,1-12.58-4.2c-2.92-1.53-5.72-3.3-8.57-5a1.67,1.67,0,0,0-.67-.28l1.78,1.46A61.45,61.45,0,0,1,100,93a18.83,18.83,0,0,1,3.31,7.23,7,7,0,0,1,.06,1.83,2.75,2.75,0,0,1-3.23,2.6A10.17,10.17,0,0,1,95.62,103a35.14,35.14,0,0,1-8-7.4,77.83,77.83,0,0,1-7.44-10.74.31.31,0,0,0-.23-.17c.1.22.21.45.32.67a70,70,0,0,1,5.5,15.08,25.47,25.47,0,0,1,.72,8.86,11.18,11.18,0,0,1-.74,2.85c-.94,2.23-2.8,2.73-4.8,1.36a12.2,12.2,0,0,1-3.59-4.38,40.13,40.13,0,0,1-4.11-12.35c-.62-3.42-1-6.88-1.47-10.34V88a68.71,68.71,0,0,1-1.58,15.59,24,24,0,0,1-3.63,8.94,9,9,0,0,1-2.15,2.08,2.6,2.6,0,0,1-3.77-.66A8.7,8.7,0,0,1,59,109.54,34,34,0,0,1,59.71,98a75.77,75.77,0,0,1,3.45-11.63c.06-.17.12-.33.17-.5A.82.82,0,0,0,63.28,85.72ZM85.48,68.1A13.93,13.93,0,1,0,71.62,82,13.93,13.93,0,0,0,85.48,68.1Z"/></svg>