<svg id="Layer_1" data-name="Layer 1" xmlns="http://www.w3.org/2000/svg" viewBox="0 0 150 150"><defs><style>.cls-1{fill:none;stroke:#000;stroke-miterlimit:10;}</style></defs><title>icons_</title><path class="cls-1" d="M37.64,79.49s-8.22-9.69-8.22-13.07,4.95-8.78,6.75-9.57S40.9,52.12,42,51.33a9.63,9.63,0,0,0,2.59-2.7c.56-.9,1.91-2.93,6.19-4.39s16-11,19.49-11.15,9.35,2.48,17,5.18,11.38,4.84,15.66,5.4,11,5.15,11,5.15l-3.65,20.4,8,7.44v7.4L105,100.71H75l-10.06,5-8.71-3.32h-9.7L42.21,86.22Z"/><line class="cls-1" x1="82.53" y1="36.53" x2="32.62" y2="72.94"/><line class="cls-1" x1="76.34" y1="34.32" x2="30.35" y2="69.22"/><line class="cls-1" x1="85.69" y1="37.69" x2="66.18" y2="105.07"/><line class="cls-1" x1="89.23" y1="39.35" x2="75" y2="100.71"/><line class="cls-1" x1="93.56" y1="40.64" x2="82.11" y2="100.71"/></svg>